<svg width="375" height="751" viewBox="0 0 375 751" fill="none" xmlns="http://www.w3.org/2000/svg">
<path d="M374.826 726.777C374.841 713.798 291.132 703.175 187.854 703.049C84.5772 702.924 0.841714 713.343 0.825934 726.322C0.810155 739.3 84.5201 749.924 187.797 750.049C291.074 750.175 374.81 739.755 374.826 726.777Z" fill="#3F3D56"/>
<path opacity="0.1" d="M325.826 726.717C325.837 717.139 264.062 709.3 187.847 709.207C111.632 709.114 49.8374 716.804 49.8258 726.381C49.8141 735.959 111.589 743.799 187.805 743.891C264.02 743.984 325.814 736.295 325.826 726.717Z" fill="black"/>
<path d="M125.364 648.043L128.461 688.964C128.461 688.964 105.75 729.225 129.672 728.624C153.594 728.024 155.485 725.508 155.485 725.508L155.501 712.918L155.534 685.85L148.66 644.294L125.364 648.043Z" fill="#2F2E41"/>
<path d="M220.406 658.23C220.406 658.23 226.051 675.234 221.63 686.559C217.21 697.885 215.289 724.322 218.436 724.955C221.583 725.588 236.687 728.754 236.687 728.754C236.687 728.754 273.183 741.389 288.926 736.372C304.67 731.355 302.161 723.798 302.161 723.798C302.161 723.798 298.397 713.092 286.437 712.448C274.478 711.804 246.835 666.446 246.217 656.373C245.6 646.301 220.406 658.23 220.406 658.23Z" fill="#2F2E41"/>
<path d="M142.107 135.965C173.049 135.965 198.132 110.882 198.132 79.9395C198.132 48.9975 173.049 23.9141 142.107 23.9141C111.164 23.9141 86.0811 48.9975 86.0811 79.9395C86.0811 110.882 111.164 135.965 142.107 135.965Z" fill="#FF6584"/>
<path d="M122.233 116.112C122.233 116.112 127.236 143.816 112.118 151.351C97.0013 158.887 140.419 173.418 140.419 173.418L159.31 168.405L171.302 142.61C171.302 142.61 156.196 141.333 160 118.676L122.233 116.112Z" fill="#FFB9B9"/>
<path opacity="0.1" d="M122.233 116.112C122.233 116.112 127.236 143.816 112.118 151.351C97.0013 158.887 140.419 173.418 140.419 173.418L159.31 168.405L171.302 142.61C171.302 142.61 156.196 141.333 160 118.676L122.233 116.112Z" fill="black"/>
<path d="M64.2045 210.466L62.872 270.896L47.009 374.115C47.009 374.115 47.5735 427.623 63.9366 430.791C80.2998 433.958 64.0063 373.506 64.0063 373.506L87.7362 288.087L92.5281 213.648L64.2045 210.466Z" fill="#FFB9B9"/>
<path d="M140.2 130.927C160.016 130.927 176.081 114.862 176.081 95.0453C176.081 75.2285 160.016 59.1638 140.2 59.1638C120.383 59.1638 104.318 75.2285 104.318 95.0453C104.318 114.862 120.383 130.927 140.2 130.927Z" fill="#FFB9B9"/>
<path d="M196.321 274.836C202.603 285.545 200.699 298.133 193.775 298.124C186.85 298.116 93.6984 286.671 93.6984 286.671L99.3898 265.275C99.3898 265.275 93.7351 256.456 97.519 250.795C101.303 245.134 93.7703 227.499 93.7703 227.499L79.3752 158.866L86.9321 156.495L99.5206 152.551L113.381 148.205C113.381 148.205 122.807 162.066 146.104 157.688C146.104 157.688 160.58 159.594 168.786 140.719C170.553 140.748 172.311 140.972 174.029 141.386C175.772 141.841 177.465 142.605 178.225 143.878C178.985 145.144 183.409 146.012 188.432 146.591C195.891 147.45 204.659 147.687 204.659 147.687L197.65 217.553C197.65 217.553 190.039 264.127 196.321 274.836Z" fill="#6C63FF"/>
<path d="M84.4113 158.872L79.3753 158.865C79.3753 158.865 59.2114 175.208 61.682 214.24C61.682 214.24 63.5659 218.019 78.0413 220.555C92.5167 223.09 98.8194 216.803 98.8194 216.803L84.4113 158.872Z" fill="#6C63FF"/>
<path d="M178.78 204.94C178.78 204.94 98.2104 199.806 98.8284 209.249C99.4465 218.692 93.7549 240.088 96.2683 243.868C98.7817 247.649 101.828 263.141 98.0838 270.185C95.839 274.394 94.1543 278.878 93.0726 283.523C93.0726 283.523 88.0382 282.258 84.242 297.991C80.4459 313.724 61.5058 359.025 69.0315 382.325C76.5572 405.626 100.927 554.218 100.927 554.218L117.175 651.81C117.175 651.81 144.238 656.879 153.692 646.818L145.019 532.239L138.875 407.59C138.875 407.59 180.905 528.505 187.195 532.29L212.849 660.739C212.849 660.739 241.793 670.846 251.885 654.492L240.039 560.682C240.039 560.682 233.136 542.418 235.666 532.979C238.195 523.539 231.279 516.606 231.279 516.606L205.631 383.75C205.631 383.75 198.096 368.633 204.404 357.31C210.713 345.987 193.15 294.346 193.15 294.346C193.15 294.346 181.851 267.894 185.646 252.79C189.442 237.687 178.78 204.94 178.78 204.94Z" fill="#2F2E41"/>
<path d="M223.485 196.181L235.989 267.33C235.989 267.33 237.864 278.034 232.177 295.653C226.491 313.272 204.407 355.422 204.407 355.422L193.1 335.264L212.063 271.078L196.417 196.148L223.485 196.181Z" fill="#FFB9B9"/>
<path d="M111.423 205.487L99.6949 211.472L86.9099 174.612L86.9319 156.495L99.5209 152.551L101.397 167.705L111.423 205.487Z" fill="#2F2E41"/>
<path d="M188.432 146.591L178.148 207.142L161.781 207.122L174.029 141.386C175.773 141.841 177.465 142.605 178.225 143.878C178.985 145.144 183.41 146.012 188.432 146.591Z" fill="#2F2E41"/>
<path d="M197.101 151.455L204.659 147.687C204.659 147.687 236.717 186.125 227.255 201.851C217.794 217.577 190.108 207.472 190.108 207.472L197.101 151.455Z" fill="#6C63FF"/>
<path d="M147.84 47.842C161.051 47.842 171.761 37.1322 171.761 23.921C171.761 10.7098 161.051 0 147.84 0C134.629 0 123.919 10.7098 123.919 23.921C123.919 37.1322 134.629 47.842 147.84 47.842Z" fill="#FF6584"/>
<path d="M171.089 59.2014C171.101 49.1191 157.301 40.9291 140.266 40.9084C123.23 40.8877 109.41 49.0441 109.398 59.1264C109.386 69.2086 123.186 77.3986 140.221 77.4193C157.257 77.44 171.077 69.2836 171.089 59.2014Z" fill="#FF6584"/>
<path d="M105.435 215.237C107.173 215.237 108.582 213.828 108.582 212.09C108.582 210.352 107.173 208.942 105.435 208.942C103.697 208.942 102.287 210.352 102.287 212.09C102.287 213.828 103.697 215.237 105.435 215.237Z" fill="#6C63FF"/>
<path d="M172.791 215.319C174.53 215.319 175.939 213.91 175.939 212.172C175.939 210.434 174.53 209.024 172.791 209.024C171.053 209.024 169.644 210.434 169.644 212.172C169.644 213.91 171.053 215.319 172.791 215.319Z" fill="#6C63FF"/>
</svg>
